<svg width="185" height="99" viewBox="0 0 185 99" fill="none" xmlns="http://www.w3.org/2000/svg">
<g clip-path="url(#clip0)">
<path fill-rule="evenodd" clip-rule="evenodd" d="M102.282 39.8452L100.63 47.6004H103.974C105.88 47.6004 107.127 47.5133 107.715 47.339C109.407 46.8399 110.447 45.6438 110.836 43.7426C110.924 43.3307 110.971 42.9663 110.971 42.6494C110.971 41.4216 110.376 40.6057 109.184 40.1938C108.469 39.9641 107.278 39.8452 105.618 39.8452H102.282ZM131.576 53.5336H140.313L139.018 40.3205H138.883L131.576 53.5336ZM68.818 52.282L67.2135 59.8312H72.162C75.228 59.8312 77.0231 58.5955 77.5553 56.1239C77.6427 55.7437 77.6903 55.3872 77.6903 55.0625C77.6903 53.2088 76.2923 52.282 73.4964 52.282H68.818ZM71.5345 39.568L70.0174 46.634H74.2113C75.784 46.634 76.8563 46.4993 77.4202 46.2379C78.6673 45.62 79.4378 44.5902 79.7396 43.1485C80.0097 41.9127 79.7952 40.9701 79.1121 40.3205C78.5799 39.8215 77.6744 39.568 76.3956 39.568H71.5345ZM57.2689 65.6535L64.0602 33.9199H81.4791C82.0351 33.9675 82.5117 34.0229 82.9089 34.0863C84.9581 34.4665 86.5229 35.2349 87.5873 36.3835C88.5643 37.445 89.0567 38.7204 89.0567 40.2255C89.0567 40.7562 88.9932 41.3028 88.882 41.8573C88.0797 45.5329 85.2679 47.9489 80.4545 49.0976L80.4068 49.1847C84.6007 49.9531 86.6977 51.9255 86.6977 55.1021C86.6977 57.1062 86.1337 58.9202 85.0058 60.5521C83.8779 62.1839 82.3687 63.4434 80.4783 64.3306C78.5879 65.2099 75.5934 65.6535 71.4948 65.6535H57.2689ZM0.309776 55.3476H9.13443C9.01528 55.9101 8.95968 56.3695 8.95968 56.7339C8.95968 58.944 10.453 60.0451 13.4395 60.0451C16.5691 60.0451 18.4039 58.8965 18.9281 56.6071C18.9837 56.3299 19.0155 56.0606 19.0155 55.815C19.0155 54.7773 18.2847 54.0643 16.8153 53.6762L9.48392 51.7513C5.3218 50.6581 3.24868 48.551 3.24868 45.422C3.24868 44.8041 3.32017 44.1466 3.47108 43.4495C4.08269 40.7641 5.62363 38.5699 8.08596 36.8667C10.866 34.9418 14.488 33.9754 18.9361 33.9754C26.3786 33.9754 30.096 36.2647 30.096 40.8513C30.096 41.6038 29.9768 42.5306 29.7465 43.6159H20.8186C20.9615 43.0534 21.041 42.5861 21.041 42.19C21.041 40.3443 19.8972 39.4254 17.6175 39.4254C16.3546 39.4254 15.2744 39.7264 14.3689 40.3284C13.4634 40.9305 12.9232 41.6909 12.7405 42.6098C12.6849 42.8633 12.6532 43.101 12.6532 43.3228C12.6532 44.4714 13.519 45.2635 15.2426 45.7151L20.8186 47.1805C23.2491 47.8222 24.9489 48.4638 25.91 49.1055C27.5542 50.167 28.3723 51.7037 28.3723 53.7158C28.3723 54.3891 28.285 55.11 28.1102 55.8942C27.4033 59.1341 25.5208 61.6056 22.4469 63.3167C19.6351 64.8851 16.1401 65.6614 11.9462 65.6614C6.52913 65.6614 2.95479 64.4574 1.23116 62.0572C0.413035 60.9323 0 59.5619 0 57.9459C0 57.2726 0.103259 56.4091 0.309776 55.3476ZM29.2937 65.6535L36.1167 34.0229H60.2872L58.9925 40.0829H43.6546L42.2249 46.6736H56.6732L55.3388 52.7335H40.8905L39.4607 59.4985H55.1561L53.8217 65.6456H29.2937V65.6535ZM154.006 65.6535L160.829 34.0229H185L183.705 40.0829H168.367L166.938 46.6736H181.386L180.052 52.7335H165.603L164.174 59.4985H179.869L178.534 65.6456H154.006V65.6535ZM68.9451 10.7812H127.39L129.566 0H71.1135L68.9451 10.7812ZM65.3707 27.5193H123.815L125.992 16.7382H67.5471L65.3707 27.5193ZM53.6787 82.9858H112.123L114.3 72.2046H55.855L53.6787 82.9858ZM50.1043 99.724H108.549L110.725 88.9428H52.2807L50.1043 99.724ZM115.745 65.6535L135.269 34.1734H146.151L152.037 65.6614H141.957L141.107 59.3401H128.224L124.657 65.6614L115.745 65.6535H106.071C106.007 64.4811 106.174 62.1047 106.563 58.5083C106.682 57.2488 106.746 56.3933 106.746 55.9259C106.746 54.9595 106.5 54.2782 106.007 53.8901C105.515 53.494 104.561 53.296 103.132 53.296H99.3826L96.7058 65.6535H87.7461L94.5691 34.015H109.462C112.02 34.015 113.712 34.0704 114.546 34.1893C116.563 34.4824 118.009 35.1795 118.875 36.2964C119.677 37.2866 120.082 38.5303 120.082 40.0195C120.082 40.78 119.995 41.58 119.812 42.4276C119.216 45.1447 117.802 47.1013 115.578 48.2975C114.125 49.0817 112.369 49.6283 110.32 49.9214L110.272 50.0957C112.592 50.1511 114.164 50.6106 114.998 51.4502C115.713 52.1553 116.071 53.3356 116.071 54.9991C116.071 55.5536 116.023 56.5042 115.936 57.8508C115.658 61.7641 115.602 64.3623 115.745 65.6535Z" fill="white"/>
</g>
<defs>
<clipPath id="clip0">
<rect width="185" height="99" fill="white"/>
</clipPath>
</defs>
</svg>
